<svg width="156" height="131" viewBox="0 0 156 131" fill="none" xmlns="http://www.w3.org/2000/svg">
<g clip-path="url(#clip0_0_1737)">
<path d="M156 65.5C155.993 77.5373 152.645 89.3405 146.32 99.6162C139.996 109.892 130.941 118.244 120.147 123.756C119.661 124.008 119.172 124.251 118.679 124.483L118.577 124.534L118.226 124.701C117.935 124.842 117.65 124.973 117.354 125.105C115.51 125.943 113.617 126.696 111.678 127.363C110.577 127.743 109.464 128.095 108.34 128.419L106.995 128.787C92.0267 132.739 76.1354 131.368 62.081 124.913C61.5052 124.645 60.9294 124.372 60.3638 124.089L59.3446 123.584C49.2575 118.344 40.7007 110.618 34.498 101.15C33.8457 100.163 33.2241 99.1525 32.633 98.1186C32.1064 97.2194 31.5968 96.3085 31.1042 95.3857C26.3168 86.1395 23.8272 75.8931 23.8428 65.5C23.8428 64.2741 23.8768 63.055 23.9448 61.8426C24.9001 44.8104 32.5204 28.8196 45.1848 17.2713C57.8493 5.72297 74.5587 -0.471735 91.7592 0.00470617C108.96 0.481147 125.294 7.59114 137.288 19.8225C149.283 32.0539 155.99 48.4415 155.985 65.5H156Z" fill="url(#paint0_linear_0_1737)"/>
<path d="M76.9449 63.1711C76.9449 63.1711 62.1674 56.2251 60.8832 46.6673C59.5991 37.1096 60.5011 27.9761 67.8644 25.42C67.8644 25.42 72.5219 10.6994 89.0319 16.6149C105.542 22.5304 102.938 40.2921 111.963 42.4189C120.987 44.5456 137.839 35.589 141.054 46.5158C144.269 57.4426 133.696 56.7757 126.669 66.0506C119.642 75.3255 130.496 80.1953 128.508 86.5806C126.521 92.9659 119.015 97.3558 119.015 97.3558L76.9449 63.1711Z" fill="url(#paint1_linear_0_1737)"/>
<path d="M56.71 84.1357L60.8833 95.3857H61.3369L67.8645 66.0507C63.742 69.6323 56.71 84.1357 56.71 84.1357Z" fill="url(#paint2_linear_0_1737)"/>
<path d="M49.3821 99.6544L46.7374 100.973C43.4558 102.923 38.5537 102.367 38.5537 102.367C41.2035 105.322 56.1237 108.667 60.3175 108.581L61.092 98.1136H51.7975L49.3821 99.6544Z" fill="url(#paint3_linear_0_1737)"/>
<path d="M118.679 124.468L118.577 124.519L118.226 124.685C117.935 124.827 117.65 124.958 117.354 125.09C115.51 125.928 113.617 126.681 111.678 127.348C110.577 127.728 109.464 128.08 108.34 128.403L106.995 128.772C92.0268 132.724 76.1355 131.353 62.0811 124.898C61.5053 124.63 60.9295 124.357 60.3639 124.074L59.3447 123.569C59.4874 119.235 59.7065 114.047 60.0275 108.576C60.2314 105.156 60.4811 101.625 60.7766 98.1187C60.8531 97.2043 60.9346 96.295 61.0161 95.3857C62.2187 82.4636 64.1449 70.481 67.2329 66.672L67.2787 66.6215C67.6708 66.0866 68.2239 65.6887 68.8584 65.4849C73.3172 64.4341 76.4612 64.0805 76.9555 63.1712C77.4498 62.2619 76.9555 60.4736 76.9555 60.4736L77.8421 60.3524C79.1314 60.1604 81.6333 59.7563 84.0029 59.1501C84.0178 59.1547 84.0338 59.1547 84.0487 59.1501C86.143 58.6096 88.1253 57.9124 89.0935 57.0739L91.0808 62.3124C91.0808 62.3124 106.026 60.4383 111.861 66.0709C111.897 66.0972 111.929 66.1277 111.958 66.1618C112.019 66.2169 112.077 66.276 112.131 66.3386C112.478 66.7025 112.787 67.1003 113.053 67.5258C114.954 70.5568 116.299 82.7212 117.232 95.9162C117.446 98.9472 117.64 102.079 117.808 105.146C118.195 112.228 118.485 119.088 118.679 124.468Z" fill="url(#paint4_linear_0_1737)"/>
<path opacity="0.15" d="M118.577 124.534L118.226 124.701C117.935 124.842 117.65 124.973 117.355 125.105C115.51 125.943 113.618 126.696 111.678 127.363C110.577 127.743 109.465 128.095 108.34 128.419C101.456 121.149 98.7246 111.713 98.7246 111.713L117.798 105.146L118.577 124.534Z" fill="black"/>
<path d="M111.856 66.0507C118.76 72.7694 120.263 86.8737 118.99 97.371C117.716 107.868 115.351 117.699 110.439 117.396C105.527 117.093 88.5274 105.403 81.959 99.028L85.7961 91.7283L99.6768 97.462V82.1807L111.856 66.0507Z" fill="url(#paint5_linear_0_1737)"/>
<path d="M111.856 66.0507C118.76 72.7694 120.263 86.8737 118.99 97.371C117.716 107.868 115.351 117.699 110.439 117.396C105.527 117.093 88.5274 105.403 81.959 99.028L85.7961 91.7283L99.6768 97.462V82.1807L111.856 66.0507Z" fill="url(#paint6_linear_0_1737)"/>
<g filter="url(#filter0_d_0_1737)">
<path d="M76.1453 95.3856H12.4541V98.1186H76.1453V95.3856Z" fill="url(#paint7_linear_0_1737)"/>
<path d="M48.4347 61.8425H0L12.4539 95.3856H60.8835L48.4347 61.8425Z" fill="url(#paint8_linear_0_1737)"/>
</g>
<path d="M26.9971 98.1187C26.9971 98.1187 35.354 102.266 40.6638 102.367C45.9735 102.468 51.803 98.1187 51.803 98.1187H26.9971Z" fill="url(#paint9_linear_0_1737)"/>
<path d="M85.7963 91.7283C85.7963 91.7283 78.4483 88.0507 75.2839 87.6465C72.1194 87.2424 62.2949 95.3857 62.2949 95.3857H76.1552L81.9745 99.0279L85.7963 91.7283Z" fill="url(#paint10_linear_0_1737)"/>
<path d="M88.4713 48.789C88.5078 51.5552 88.712 54.3167 89.0828 57.0586C85.7961 58.8924 81.9488 59.8775 77.8315 60.3574L77.592 57.0586L77.4493 55.038V54.9723C76.6556 54.9546 75.8732 54.783 75.1461 54.4671C70.1726 52.3404 69.1025 41.944 69.1025 41.944C71.095 41.8632 73.6887 38.3018 73.6887 38.3018C75.141 40.5043 81.8775 44.7578 85.7859 43.6161C89.6943 42.4744 89.3885 39.7415 89.3885 39.7415C90.0954 40.037 90.7069 40.5193 91.1562 41.1357C91.6055 41.7522 91.8754 42.4791 91.9364 43.2372C92.1453 45.9045 88.4713 48.789 88.4713 48.789Z" fill="url(#paint11_linear_0_1737)"/>
<path opacity="0.15" d="M85.1343 51.7241C84.212 53.2699 80.0386 55.7301 77.5978 57.0688L77.4551 55.0481C77.6079 55.0481 77.7557 54.9976 77.8984 54.9673C79.8911 54.6177 81.8038 53.9143 83.5444 52.8911C83.5652 52.883 83.5843 52.871 83.6005 52.8557C84.1236 52.5491 84.6136 52.1903 85.063 51.7847L85.1343 51.7241Z" fill="black"/>
<path opacity="0.15" d="M93.9492 95.1029L104.762 99.4877L99.6666 95.8455V82.2059C99.6666 82.2059 98.0716 94.0572 93.9492 95.1029Z" fill="black"/>
</g>
<defs>
<filter id="filter0_d_0_1737" x="-15" y="46.8425" width="116.146" height="76.276" filterUnits="userSpaceOnUse" color-interpolation-filters="sRGB">
<feFlood flood-opacity="0" result="BackgroundImageFix"/>
<feColorMatrix in="SourceAlpha" type="matrix" values="0 0 0 0 0 0 0 0 0 0 0 0 0 0 0 0 0 0 127 0" result="hardAlpha"/>
<feOffset dx="5" dy="5"/>
<feGaussianBlur stdDeviation="10"/>
<feColorMatrix type="matrix" values="0 0 0 0 0 0 0 0 0 0 0 0 0 0 0 0 0 0 0.2 0"/>
<feBlend mode="normal" in2="BackgroundImageFix" result="effect1_dropShadow_0_1737"/>
<feBlend mode="normal" in="SourceGraphic" in2="effect1_dropShadow_0_1737" result="shape"/>
</filter>
<linearGradient id="paint0_linear_0_1737" x1="90.1926" y1="7.09361" x2="87.9708" y2="136.225" gradientUnits="userSpaceOnUse">
<stop stop-color="white" stop-opacity="0"/>
<stop offset="1" stop-color="#64B5F6" stop-opacity="0.6"/>
</linearGradient>
<linearGradient id="paint1_linear_0_1737" x1="60.3992" y1="56.2807" x2="141.655" y2="56.2807" gradientUnits="userSpaceOnUse">
<stop stop-color="#EF9A9A"/>
<stop offset="1" stop-color="#D81B60"/>
</linearGradient>
<linearGradient id="paint2_linear_0_1737" x1="61.6834" y1="81.8826" x2="59.2742" y2="109.514" gradientUnits="userSpaceOnUse">
<stop stop-color="#7E57C2"/>
<stop offset="1" stop-color="#4527A0"/>
</linearGradient>
<linearGradient id="paint3_linear_0_1737" x1="6798.02" y1="2526.43" x2="6774.49" y2="3102.43" gradientUnits="userSpaceOnUse">
<stop stop-color="#7E57C2"/>
<stop offset="1" stop-color="#4527A0"/>
</linearGradient>
<linearGradient id="paint4_linear_0_1737" x1="20326.2" y1="14857" x2="24453.7" y2="22491.9" gradientUnits="userSpaceOnUse">
<stop stop-color="#7E57C2"/>
<stop offset="1" stop-color="#4527A0"/>
</linearGradient>
<linearGradient id="paint5_linear_0_1737" x1="13945.4" y1="9769.53" x2="17609.5" y2="15925.1" gradientUnits="userSpaceOnUse">
<stop stop-color="#7E57C2"/>
<stop offset="1" stop-color="#4527A0"/>
</linearGradient>
<linearGradient id="paint6_linear_0_1737" x1="103.758" y1="71.7489" x2="98.0378" y2="118.812" gradientUnits="userSpaceOnUse">
<stop offset="0.14" stop-color="#7E57C2" stop-opacity="0"/>
<stop offset="0.26" stop-color="#724DBB" stop-opacity="0.21"/>
<stop offset="0.48" stop-color="#5F3DAF" stop-opacity="0.55"/>
<stop offset="0.66" stop-color="#5131A7" stop-opacity="0.79"/>
<stop offset="0.81" stop-color="#482AA2" stop-opacity="0.94"/>
<stop offset="0.91" stop-color="#4527A0"/>
</linearGradient>
<linearGradient id="paint7_linear_0_1737" x1="12.4541" y1="96.7496" x2="76.1454" y2="96.7496" gradientUnits="userSpaceOnUse">
<stop stop-color="#D2D4D5"/>
<stop offset="1" stop-color="#AAACAE"/>
</linearGradient>
<linearGradient id="paint8_linear_0_1737" x1="522.989" y1="4197.71" x2="4127.02" y2="8331.05" gradientUnits="userSpaceOnUse">
<stop stop-color="#D2D4D5"/>
<stop offset="1" stop-color="#AAACAE"/>
</linearGradient>
<linearGradient id="paint9_linear_0_1737" x1="28.5767" y1="93.557" x2="48.884" y2="102.338" gradientUnits="userSpaceOnUse">
<stop stop-color="#FFF8E1"/>
<stop offset="1" stop-color="#FFCC80"/>
</linearGradient>
<linearGradient id="paint10_linear_0_1737" x1="7860.06" y1="2940.73" x2="8378.29" y2="3508.97" gradientUnits="userSpaceOnUse">
<stop stop-color="#FFF8E1"/>
<stop offset="1" stop-color="#FFCC80"/>
</linearGradient>
<linearGradient id="paint11_linear_0_1737" x1="8029.47" y1="3226.22" x2="8484.41" y2="4087.69" gradientUnits="userSpaceOnUse">
<stop stop-color="#FFF8E1"/>
<stop offset="1" stop-color="#FFCC80"/>
</linearGradient>
<clipPath id="clip0_0_1737">
<rect width="156" height="131" fill="white"/>
</clipPath>
</defs>
</svg>
