<svg width="182" height="132" viewBox="0 0 182 132" fill="none" xmlns="http://www.w3.org/2000/svg">
<g clip-path="url(#clip0_0_1699)">
<path d="M181.995 66C181.988 78.1292 178.67 90.0225 172.403 100.377C166.136 110.731 157.163 119.146 146.467 124.701C145.841 125.031 145.205 125.347 144.564 125.652C144.276 125.795 143.993 125.927 143.7 126.06C141.872 126.905 139.997 127.663 138.075 128.335C136.56 128.869 135.005 129.353 133.435 129.77C118.603 133.752 102.856 132.371 88.9295 125.866C88.3589 125.596 87.7883 125.322 87.2279 125.037C76.8009 119.779 67.9557 111.809 61.6062 101.952C55.2567 92.0955 51.6331 80.7081 51.1099 68.967C50.5867 57.2258 53.1828 45.5568 58.6301 35.1656C64.0773 24.7743 72.178 16.0377 82.0953 9.85855C92.0126 3.67936 103.387 0.28168 115.042 0.0165558C126.698 -0.248568 138.213 2.62848 148.396 8.35045C158.58 14.0724 167.063 22.4318 172.97 32.5647C178.876 42.6977 181.992 54.2368 181.995 65.9898V66Z" fill="url(#paint0_linear_0_1699)"/>
<path d="M90.8538 106.742L83.623 95.3554C83.623 95.3554 103.654 72.0115 105.659 70.6321C105.659 70.6321 95.5547 87.72 90.8538 106.742Z" fill="url(#paint1_linear_0_1699)"/>
<path d="M83.623 95.3553L69.9896 107.572L44.9093 95.3553L25.7217 96.4141C25.7217 96.4141 37.6736 100.486 41.0364 100.318L44.4044 100.15C44.4044 100.15 65.0008 120.17 69.7372 121.697C74.4735 123.224 90.0306 111.252 90.0306 111.252L90.9345 106.778L83.623 95.3553Z" fill="url(#paint2_linear_0_1699)"/>
<path d="M121.241 67.8681C119.346 68.7928 117.309 69.385 115.217 69.6191C112.798 69.9856 109.122 68.6316 109.122 68.6316C111.899 66.4276 111.253 61.2304 111.253 61.2304L111.313 61.1999C114.277 60.9708 116.757 59.2758 118.489 57.6367C117.863 62.0856 121.241 67.8681 121.241 67.8681Z" fill="url(#paint3_linear_0_1699)"/>
<path d="M121.241 51.3146V54.3688C120.452 55.5553 119.53 56.6466 118.494 57.6214V57.6214C116.762 59.2656 114.283 60.9606 111.319 61.1846C109.972 61.2883 108.62 61.0884 107.36 60.5992C99.2811 57.5451 104.962 41.3836 104.962 41.3836C107.527 34.807 119.14 37.9884 119.14 37.9884C120.695 39.8565 120.993 45.074 120.933 45.583C120.674 46.2982 120.335 46.9813 119.923 47.6191C119.923 47.6191 122.13 45.5219 122.887 46.9167C123.644 48.3114 121.241 51.3146 121.241 51.3146Z" fill="url(#paint4_linear_0_1699)"/>
<path d="M121.241 54.379V51.3249C121.241 51.3249 123.639 48.3471 122.882 46.9422C122.125 45.5373 119.918 47.6446 119.918 47.6446C120.33 47.0068 120.669 46.3237 120.928 45.6085C120.988 45.0995 120.736 40.1772 119.135 38.0139C119.135 38.0139 107.522 34.8325 104.957 41.4091C104.957 41.4091 101.634 40.559 98.7712 36.5734C94.0904 30.0528 99.6801 29.2536 105.219 30.5109C111.94 32.038 118.676 27.0292 126.376 32.1194C134.076 37.2096 127.174 48.7797 121.241 54.379Z" fill="#262F72"/>
<g filter="url(#filter0_d_0_1699)">
<path d="M68.3838 25.9602H2.86805C1.28407 25.9602 0 27.2547 0 28.8515V89.751C0 91.3478 1.28407 92.6423 2.86805 92.6423H68.3838C69.9678 92.6423 71.2519 91.3478 71.2519 89.751V28.8515C71.2519 27.2547 69.9678 25.9602 68.3838 25.9602Z" fill="white"/>
</g>
<path d="M10.9116 38.0444C10.7297 38.2519 10.4961 38.4065 10.235 38.4924C9.92339 38.6014 9.59532 38.6548 9.26552 38.6502C8.92325 38.658 8.58508 38.5737 8.28594 38.4058C8.00253 38.2399 7.77549 37.9915 7.63458 37.6932C7.4741 37.3495 7.39295 36.9736 7.39724 36.5937V36.2985C7.38807 35.9121 7.46214 35.5283 7.61436 35.1735C7.74522 34.8726 7.96356 34.6188 8.24051 34.4456C8.57563 34.2627 8.95439 34.1768 9.33493 34.1975C9.71546 34.2181 10.0829 34.3445 10.3966 34.5627C10.6978 34.8403 10.879 35.2259 10.9015 35.6367H10.0381C10.0185 35.4292 9.92525 35.2358 9.77552 35.0921C9.61678 34.9694 9.41976 34.9081 9.22006 34.919C9.08544 34.9114 8.95117 34.9388 8.83005 34.9985C8.70893 35.0582 8.60501 35.1483 8.5283 35.2601C8.3511 35.5683 8.26853 35.9226 8.29099 36.2781V36.553C8.2691 36.9111 8.35917 37.2672 8.54852 37.571C8.63586 37.6871 8.75013 37.7799 8.8813 37.8411C9.01247 37.9024 9.15653 37.9302 9.30087 37.9223C9.55652 37.9448 9.81107 37.8683 10.0128 37.7085V36.9602H9.20493V36.3036H10.9015L10.9116 38.0444Z" fill="#64B5F6"/>
<path d="M62.8299 34.1912H16.4059C15.8398 34.1912 15.3809 34.6538 15.3809 35.2245V38.9811C15.3809 39.5518 15.8398 40.0144 16.4059 40.0144H62.8299C63.396 40.0144 63.8549 39.5518 63.8549 38.9811V35.2245C63.8549 34.6538 63.396 34.1912 62.8299 34.1912Z" fill="#E7EEF2"/>
<path d="M63.8549 43.3026H15.3809V44.3207H63.8549V43.3026Z" fill="#BBDEFB"/>
<path d="M63.8549 45.5933H15.3809V46.6113H63.8549V45.5933Z" fill="#E7E8E9"/>
<path d="M63.8549 47.8838H15.3809V48.9018H63.8549V47.8838Z" fill="#E7E8E9"/>
<path d="M63.8549 50.1744H15.3809V51.1925H63.8549V50.1744Z" fill="#E7E8E9"/>
<path d="M63.8549 54.4604H15.3809V55.4785H63.8549V54.4604Z" fill="#BBDEFB"/>
<path d="M63.8549 56.751H15.3809V57.769H63.8549V56.751Z" fill="#E7E8E9"/>
<path d="M63.8549 59.0416H15.3809V60.0597H63.8549V59.0416Z" fill="#E7E8E9"/>
<path d="M63.8549 61.3323H15.3809V62.3503H63.8549V61.3323Z" fill="#E7E8E9"/>
<path d="M63.8549 65.491H15.3809V66.509H63.8549V65.491Z" fill="#BBDEFB"/>
<path d="M63.8549 67.7816H15.3809V68.7997H63.8549V67.7816Z" fill="#E7E8E9"/>
<path d="M63.8549 70.0721H15.3809V71.0902H63.8549V70.0721Z" fill="#E7E8E9"/>
<path d="M63.8549 72.3628H15.3809V73.3809H63.8549V72.3628Z" fill="#E7E8E9"/>
<path d="M63.8549 76.5215H15.3809V77.5395H63.8549V76.5215Z" fill="#BBDEFB"/>
<path d="M63.8549 78.8121H15.3809V79.8302H63.8549V78.8121Z" fill="#E7E8E9"/>
<path d="M63.8549 81.1027H15.3809V82.1207H63.8549V81.1027Z" fill="#E7E8E9"/>
<path d="M63.8549 83.3933H15.3809V84.4114H63.8549V83.3933Z" fill="#E7E8E9"/>
<path d="M138.707 92.4591C142.161 102.823 144.721 114.82 146.468 124.701C145.842 125.032 145.206 125.347 144.564 125.653C144.276 125.795 143.994 125.927 143.701 126.06C141.873 126.905 139.998 127.663 138.076 128.335C136.561 128.87 135.006 129.353 133.435 129.771C118.604 133.752 102.857 132.371 88.9302 125.866C88.3596 125.597 87.789 125.322 87.2285 125.037C88.2384 119.809 89.4401 113.665 90.8489 106.747C91.3606 104.24 91.8975 101.63 92.4597 98.9186C95.353 85.0273 99.5036 77.4633 102.932 73.3656L102.967 73.3249C103.619 72.5459 104.324 71.8144 105.078 71.1361C105.099 71.1114 105.123 71.0893 105.149 71.0699C105.32 70.9172 105.492 70.7747 105.654 70.6372C107.719 68.9422 109.123 68.6317 109.123 68.6317L109.249 68.6775H109.32C110.416 69.1135 111.566 69.3994 112.738 69.5276H112.935H112.965C113.714 69.5998 114.467 69.6117 115.217 69.5632H115.263C117.347 69.4293 119.377 68.8387 121.211 67.8325V67.8325C123.362 68.5497 125.388 69.6026 127.215 70.9528C132.436 74.8163 142.954 88.9825 142.954 88.9825L138.707 92.4591Z" fill="url(#paint5_linear_0_1699)"/>
<path d="M157.939 111.802C157.909 113.217 156.632 116.088 154.763 119.57C152.127 121.487 149.352 123.202 146.462 124.701C145.836 125.031 145.2 125.347 144.558 125.652C144.271 125.795 143.988 125.927 143.695 126.06C141.867 126.905 139.992 127.663 138.07 128.335L142.948 112.662L130.324 99.3003L138.701 92.459L142.948 88.9926C142.948 88.9926 158.071 106.33 157.939 111.802Z" fill="url(#paint6_linear_0_1699)"/>
</g>
<defs>
<filter id="filter0_d_0_1699" x="-10" y="19.9602" width="91.252" height="86.6821" filterUnits="userSpaceOnUse" color-interpolation-filters="sRGB">
<feFlood flood-opacity="0" result="BackgroundImageFix"/>
<feColorMatrix in="SourceAlpha" type="matrix" values="0 0 0 0 0 0 0 0 0 0 0 0 0 0 0 0 0 0 127 0" result="hardAlpha"/>
<feOffset dy="4"/>
<feGaussianBlur stdDeviation="5"/>
<feColorMatrix type="matrix" values="0 0 0 0 0 0 0 0 0 0 0 0 0 0 0 0 0 0 0.15 0"/>
<feBlend mode="normal" in2="BackgroundImageFix" result="effect1_dropShadow_0_1699"/>
<feBlend mode="normal" in="SourceGraphic" in2="effect1_dropShadow_0_1699" result="shape"/>
</filter>
<linearGradient id="paint0_linear_0_1699" x1="116.788" y1="7.16742" x2="114.512" y2="137.263" gradientUnits="userSpaceOnUse">
<stop stop-color="white" stop-opacity="0"/>
<stop offset="1" stop-color="#64B5F6" stop-opacity="0.6"/>
</linearGradient>
<linearGradient id="paint1_linear_0_1699" x1="96.2314" y1="68.2091" x2="92.3835" y2="103.452" gradientUnits="userSpaceOnUse">
<stop stop-color="#42A5F5"/>
<stop offset="1" stop-color="#1565C0"/>
</linearGradient>
<linearGradient id="paint2_linear_0_1699" x1="52.5339" y1="105.322" x2="94.4553" y2="110.833" gradientUnits="userSpaceOnUse">
<stop stop-color="#FFE082"/>
<stop offset="1" stop-color="#FFA726"/>
</linearGradient>
<linearGradient id="paint3_linear_0_1699" x1="9407.78" y1="2544.52" x2="9410.77" y2="2315.66" gradientUnits="userSpaceOnUse">
<stop stop-color="#FFE082"/>
<stop offset="1" stop-color="#FFA726"/>
</linearGradient>
<linearGradient id="paint4_linear_0_1699" x1="14977.3" y1="4075.82" x2="15770.5" y2="4075.82" gradientUnits="userSpaceOnUse">
<stop stop-color="#FFE082"/>
<stop offset="1" stop-color="#FFA726"/>
</linearGradient>
<linearGradient id="paint5_linear_0_1699" x1="42938.6" y1="15103.6" x2="48837.7" y2="20773.6" gradientUnits="userSpaceOnUse">
<stop stop-color="#42A5F5"/>
<stop offset="1" stop-color="#1565C0"/>
</linearGradient>
<linearGradient id="paint6_linear_0_1699" x1="22999.9" y1="12265.9" x2="22596.5" y2="9747.27" gradientUnits="userSpaceOnUse">
<stop stop-color="#FFE082"/>
<stop offset="1" stop-color="#FFA726"/>
</linearGradient>
<clipPath id="clip0_0_1699">
<rect width="182" height="132" fill="white"/>
</clipPath>
</defs>
</svg>
