<svg width="292" height="129" viewBox="0 0 292 129" fill="none" xmlns="http://www.w3.org/2000/svg">
<g filter="url(#filter0_d_0_1575)">
<path d="M90.4231 0.756439H62.9925C59.2072 0.756439 56.1387 3.04222 56.1387 5.86187V26.2951C56.1387 29.1147 59.2072 31.4005 62.9925 31.4005H90.4231C94.2083 31.4005 97.2769 29.1147 97.2769 26.2951V5.86187C97.2769 3.04222 94.2083 0.756439 90.4231 0.756439Z" fill="#56CCF2"/>
</g>
<g clip-path="url(#clip0_0_1575)">
<path d="M87 15.0074H82.83L86.07 12.5772L84.66 11.5121L80 15.0074H78V13.5073L82.66 10.012L81.24 8.95447L78 11.3846V8.25693H76V11.3846L72.76 8.95447L71.34 10.012L76 13.5073V15.0074H74L69.34 11.5121L67.93 12.5772L71.17 15.0074H67V16.5075H71.17L67.93 18.9376L69.34 20.0027L74 16.5075H76V18.0076L71.34 21.5028L72.76 22.5604L76 20.1302V23.2579H78V20.1302L81.24 22.5604L82.66 21.5028L78 18.0076V16.5075H80L84.66 20.0027L86.07 18.9376L82.83 16.5075H87V15.0074Z" fill="white"/>
</g>
<g filter="url(#filter1_d_0_1575)">
<path d="M264.284 78.0114H236.854C233.069 78.0114 230 80.2972 230 83.1168V103.55C230 106.37 233.069 108.656 236.854 108.656H264.284C268.07 108.656 271.138 106.37 271.138 103.55V83.1168C271.138 80.2972 268.07 78.0114 264.284 78.0114Z" fill="#F2C94C"/>
</g>
<path d="M260 90.7622C260 87.012 256 84.0118 251 84.0118C246 84.0118 242 87.012 242 90.7622C242 93.0874 243.6 95.1875 246 96.3876V98.2627C246 99.2378 246.8 100.063 248 100.363V100.513C248 101.788 249.3 102.763 251 102.763C252.7 102.763 254 101.788 254 100.513V100.363C255.2 100.063 256 99.2378 256 98.2627V96.3876C258.4 95.1875 260 93.0874 260 90.7622ZM244 90.7622C244 87.8371 247.1 85.5119 251 85.5119C254.9 85.5119 258 87.8371 258 90.7622C258 93.3874 255.4 95.5626 252 95.9376V94.0625L253.7 92.7874C254.1 92.4874 254.1 92.0373 253.7 91.7373C253.3 91.4373 252.7 91.4373 252.3 91.7373L251 92.7124L249.7 91.7373C249.3 91.4373 248.7 91.4373 248.3 91.7373C247.9 92.0373 247.9 92.4874 248.3 92.7874L250 94.0625V95.9376C246.6 95.5626 244 93.3874 244 90.7622ZM251 101.263C250.4 101.263 250 100.963 250 100.513H252C252 100.963 251.6 101.263 251 101.263ZM254 98.2627C254 98.7128 253.6 99.0128 253 99.0128H249C248.4 99.0128 248 98.7128 248 98.2627V97.1377C248.9 97.3627 249.9 97.5127 251 97.5127C252.1 97.5127 253.1 97.3627 254 97.1377V98.2627Z" fill="white"/>
<g filter="url(#filter2_d_0_1575)">
<path d="M44.2844 78.0114H16.8538C13.0686 78.0114 10 80.2972 10 83.1168V103.55C10 106.37 13.0686 108.655 16.8538 108.655H44.2844C48.0696 108.655 51.1382 106.37 51.1382 103.55V83.1168C51.1382 80.2972 48.0696 78.0114 44.2844 78.0114Z" fill="#F58A8A"/>
</g>
<g clip-path="url(#clip1_0_1575)">
<path d="M37 90.0122H36V88.5121C36 86.442 33.76 84.7619 31 84.7619C28.24 84.7619 26 86.442 26 88.5121V90.0122H25C23.9 90.0122 23 90.6873 23 91.5123V99.0128C23 99.8378 23.9 100.513 25 100.513H37C38.1 100.513 39 99.8378 39 99.0128V91.5123C39 90.6873 38.1 90.0122 37 90.0122ZM31 96.7626C29.9 96.7626 29 96.0876 29 95.2625C29 94.4375 29.9 93.7625 31 93.7625C32.1 93.7625 33 94.4375 33 95.2625C33 96.0876 32.1 96.7626 31 96.7626ZM34.1 90.0122H27.9V88.5121C27.9 87.2295 29.29 86.187 31 86.187C32.71 86.187 34.1 87.2295 34.1 88.5121V90.0122Z" fill="white"/>
</g>
<g filter="url(#filter3_d_0_1575)">
<path d="M218.284 0.756439H190.854C187.069 0.756439 184 3.04222 184 5.86187V26.2951C184 29.1147 187.069 31.4005 190.854 31.4005H218.284C222.07 31.4005 225.138 29.1147 225.138 26.2951V5.86187C225.138 3.04222 222.07 0.756439 218.284 0.756439Z" fill="#6FCF97"/>
</g>
<path d="M210.311 11.9295H193.979V19.5851H210.311V11.9295Z" fill="white"/>
<path d="M214.713 13.4529L211.108 14.5893V16.9576L214.713 18.094H216.02V13.4529H214.713Z" fill="white"/>
<defs>
<filter id="filter0_d_0_1575" x="46.1387" y="-9.24356" width="71.1387" height="60.6441" filterUnits="userSpaceOnUse" color-interpolation-filters="sRGB">
<feFlood flood-opacity="0" result="BackgroundImageFix"/>
<feColorMatrix in="SourceAlpha" type="matrix" values="0 0 0 0 0 0 0 0 0 0 0 0 0 0 0 0 0 0 127 0" result="hardAlpha"/>
<feOffset dx="5" dy="5"/>
<feGaussianBlur stdDeviation="7.5"/>
<feColorMatrix type="matrix" values="0 0 0 0 0 0 0 0 0 0 0 0 0 0 0 0 0 0 0.15 0"/>
<feBlend mode="normal" in2="BackgroundImageFix" result="effect1_dropShadow_0_1575"/>
<feBlend mode="normal" in="SourceGraphic" in2="effect1_dropShadow_0_1575" result="shape"/>
</filter>
<filter id="filter1_d_0_1575" x="220" y="68.0114" width="71.1387" height="60.6441" filterUnits="userSpaceOnUse" color-interpolation-filters="sRGB">
<feFlood flood-opacity="0" result="BackgroundImageFix"/>
<feColorMatrix in="SourceAlpha" type="matrix" values="0 0 0 0 0 0 0 0 0 0 0 0 0 0 0 0 0 0 127 0" result="hardAlpha"/>
<feOffset dx="5" dy="5"/>
<feGaussianBlur stdDeviation="7.5"/>
<feColorMatrix type="matrix" values="0 0 0 0 0 0 0 0 0 0 0 0 0 0 0 0 0 0 0.15 0"/>
<feBlend mode="normal" in2="BackgroundImageFix" result="effect1_dropShadow_0_1575"/>
<feBlend mode="normal" in="SourceGraphic" in2="effect1_dropShadow_0_1575" result="shape"/>
</filter>
<filter id="filter2_d_0_1575" x="0" y="68.0114" width="71.1387" height="60.6441" filterUnits="userSpaceOnUse" color-interpolation-filters="sRGB">
<feFlood flood-opacity="0" result="BackgroundImageFix"/>
<feColorMatrix in="SourceAlpha" type="matrix" values="0 0 0 0 0 0 0 0 0 0 0 0 0 0 0 0 0 0 127 0" result="hardAlpha"/>
<feOffset dx="5" dy="5"/>
<feGaussianBlur stdDeviation="7.5"/>
<feColorMatrix type="matrix" values="0 0 0 0 0 0 0 0 0 0 0 0 0 0 0 0 0 0 0.15 0"/>
<feBlend mode="normal" in2="BackgroundImageFix" result="effect1_dropShadow_0_1575"/>
<feBlend mode="normal" in="SourceGraphic" in2="effect1_dropShadow_0_1575" result="shape"/>
</filter>
<filter id="filter3_d_0_1575" x="174" y="-9.24356" width="71.1387" height="60.6441" filterUnits="userSpaceOnUse" color-interpolation-filters="sRGB">
<feFlood flood-opacity="0" result="BackgroundImageFix"/>
<feColorMatrix in="SourceAlpha" type="matrix" values="0 0 0 0 0 0 0 0 0 0 0 0 0 0 0 0 0 0 127 0" result="hardAlpha"/>
<feOffset dx="5" dy="5"/>
<feGaussianBlur stdDeviation="7.5"/>
<feColorMatrix type="matrix" values="0 0 0 0 0 0 0 0 0 0 0 0 0 0 0 0 0 0 0.15 0"/>
<feBlend mode="normal" in2="BackgroundImageFix" result="effect1_dropShadow_0_1575"/>
<feBlend mode="normal" in="SourceGraphic" in2="effect1_dropShadow_0_1575" result="shape"/>
</filter>
<clipPath id="clip0_0_1575">
<rect width="24" height="18.0012" fill="white" transform="translate(65 6.75684)"/>
</clipPath>
<clipPath id="clip1_0_1575">
<rect width="24" height="18.0012" fill="white" transform="translate(19 84.0118)"/>
</clipPath>
</defs>
</svg>
